<svg width="581" height="631" viewBox="0 0 581 631" fill="none" xmlns="http://www.w3.org/2000/svg">
<path d="M52.4899 366.87C50.9499 368.45 49.4099 369.9 47.8899 371.19C64.5699 432.65 102.72 485.37 153.76 520.76C154.31 518.99 155 517.22 155.77 515.47C105.54 480.3 68.2599 427.92 52.4899 366.88V366.87Z" fill="white"/>
<path d="M237.17 553.74C237.17 553.68 237.19 553.62 237.19 553.55C226.68 550.71 216.43 547.24 206.49 543.17C205.38 544.78 204.2 546.29 202.95 547.71C214 552.32 225.42 556.21 237.16 559.32C237.02 557.5 237.02 555.64 237.16 553.74H237.17Z" fill="white"/>
<path d="M44.2101 301.38C44.2101 157.13 161.15 40.19 305.4 40.19C323.84 40.19 341.83 42.11 359.19 45.75C359.16 45.11 359.14 44.47 359.14 43.83C359.14 42.56 359.21 41.31 359.31 40.06C341.9 36.47 323.87 34.59 305.41 34.59C158.3 34.59 38.6101 154.27 38.6101 301.39C38.6101 311.05 39.1401 320.59 40.1501 329.99C41.7901 327.71 43.4701 325.58 45.1701 323.6C44.5501 316.27 44.2201 308.87 44.2201 301.38H44.2101Z" fill="white"/>
<path d="M209.46 538.26C209.22 538.71 209.01 539.16 208.75 539.6C208.04 540.84 207.28 542.03 206.48 543.17C216.42 547.24 226.67 550.72 237.18 553.55C237.35 551.62 237.66 549.75 238.11 547.95C228.31 545.27 218.75 542.03 209.45 538.25L209.46 538.26Z" fill="white"/>
<path d="M560.98 301.38C560.98 442.31 446.33 556.96 305.4 556.96C298.34 556.96 291.35 556.66 284.43 556.09C284.41 556.58 284.41 557.07 284.37 557.57C284.26 558.97 284.04 560.33 283.77 561.67C290.9 562.25 298.11 562.57 305.4 562.57C449.65 562.57 566.59 445.63 566.59 301.38C566.59 208.46 518.06 126.88 444.97 80.58C443.39 81.88 441.73 83.09 440 84.2C512.57 129.34 560.99 209.8 560.99 301.37L560.98 301.38Z" fill="white"/>
<path d="M449.18 76.73C447.86 78.09 446.45 79.37 444.97 80.59C518.06 126.89 566.59 208.47 566.59 301.39C566.59 445.64 449.65 562.58 305.4 562.58C298.12 562.58 290.91 562.27 283.77 561.68C283.39 563.59 282.87 565.42 282.21 567.17C289.86 567.83 297.59 568.19 305.4 568.19C452.51 568.19 572.2 448.5 572.2 301.39C572.2 207.18 523.12 124.22 449.18 76.74V76.73Z" fill="white"/>
<path d="M158.36 510.31C108.58 475.17 71.86 422.71 57.04 361.77C55.54 363.6 54.01 365.3 52.49 366.88C68.25 427.92 105.54 480.31 155.77 515.47C156.51 513.78 157.32 512.1 158.28 510.45C158.31 510.4 158.34 510.36 158.37 510.31H158.36Z" fill="white"/>
<path d="M50.38 318.1C50.02 312.57 49.82 307 49.82 301.38C49.82 160.45 164.47 45.8 305.4 45.8C324.07 45.8 342.27 47.83 359.81 51.65C359.48 49.72 359.27 47.75 359.19 45.75C341.83 42.12 323.84 40.19 305.4 40.19C161.15 40.19 44.21 157.13 44.21 301.38C44.21 308.86 44.54 316.27 45.16 323.6C46.89 321.59 48.64 319.76 50.38 318.11V318.1Z" fill="white"/>
<path d="M567.93 62.5C547.22 41.29 510.66 35.54 462.71 45.31C462.56 49.99 461.71 54.51 460.25 58.77C505.9 48.64 540.84 52.82 558.89 71.32C579.93 92.87 560.94 128.8 541.3 155.14C539.22 157.93 539.79 161.89 542.59 163.97C543.72 164.81 545.04 165.22 546.36 165.22C548.28 165.22 550.19 164.34 551.42 162.68C592.32 107.81 582.97 77.91 567.92 62.5H567.93Z" fill="white"/>
<path d="M220.8 165.67C145.19 220.83 80.2601 285.09 42.6701 341.98C2.07008 403.41 -9.09992 445 8.49008 469.13C20.1401 485.1 35.6201 492.55 59.7201 492.55C69.8201 492.55 81.4401 491.24 94.9201 488.7C98.3301 488.06 100.82 484.87 100.26 481.44C99.7001 478.01 96.3401 475.6 92.8601 476.24C46.1401 485.08 30.2901 477.59 18.6801 461.68C4.95008 442.86 16.8901 403.87 53.1901 348.93C89.9901 293.24 153.79 230.16 228.23 175.86C275.72 141.22 315.21 114.11 360.15 92.98C365.52 90.45 369.92 86.15 372.32 80.72C373.04 79.08 373.42 77.47 372.21 76.18C323.3 98.23 270.89 129.12 220.8 165.66V165.67Z" fill="white"/>
<path d="M456.1 21.17C454.59 15.99 451.37 8.97999 444.61 5.04999C440.3 2.53999 435.47 2.01998 432.22 1.84998C431 1.78998 429.78 1.75999 428.56 1.73999C427.87 1.72999 427.18 1.70998 426.49 1.68998C424.71 1.63998 422.81 1.49998 420.52 1.25998C419.54 1.15998 418.55 1.03999 417.57 0.929986C414.44 0.569986 411.21 0.199985 407.96 0.139985C404.09 0.0599854 400.32 0.489985 396.75 1.38999C390.12 3.06999 383.82 6.45998 378.54 11.19C373.34 15.84 369.37 21.75 367.04 28.28C364.72 34.8 364.16 42.08 365.44 49.32C366.02 52.63 367.04 55.91 368.55 59.35C369.92 62.47 371.74 65.4 374.12 68.31C374.71 69.02 375.35 69.62 375.91 70.12L376.87 70.95C377.2 71.22 377.53 71.48 377.86 71.74C379.51 73.02 381.5 73.08 383.03 71.9C384.58 70.7 385.31 68.21 383.92 66.4C383.71 66.13 383.51 65.85 383.31 65.58L383.22 65.45C383.16 65.37 383.1 65.28 383.05 65.21C382.95 65.06 382.87 64.94 382.76 64.79C382.73 64.75 382.71 64.71 382.68 64.66C382.52 64.42 382.36 64.17 382.2 63.93C381.94 63.52 381.67 63.12 381.39 62.72C380.58 61.58 379.83 60.36 379.15 59.09C378.8 58.44 378.46 57.78 378.14 57.11C377.99 56.79 377.84 56.47 377.7 56.16L377.51 55.71C376.97 54.37 376.5 52.98 376.12 51.58C375.74 50.2 375.44 48.7 375.21 47.18C374.82 44 374.8 40.87 375.16 37.94C375.56 35.27 376.26 32.67 377.24 30.28C378.28 27.91 379.62 25.63 381.19 23.54C382.95 21.32 384.98 19.29 387.2 17.54C389.6 15.73 392.16 14.23 394.76 13.09C397.35 12.03 400.02 11.29 402.66 10.9C406.71 10.41 410.89 10.73 414.43 11.11L416.36 11.32C420.12 11.73 424 12.16 427.9 12.24H428.21C430.35 12.29 432.37 12.33 434.31 12.56C435.72 12.77 436.96 13.09 437.99 13.49C438.86 13.88 439.69 14.37 440.38 14.87C441.23 15.57 442.03 16.37 442.67 17.17C443.52 18.34 444.28 19.67 444.9 21.06C445.92 23.57 446.64 26.36 447.1 29.55C447.4 31.9 447.54 34.36 447.55 37.06C447.55 40.58 447.38 43.77 447 46.77C446.44 50.78 445.48 54.45 444.18 57.63C443.08 60.14 441.75 62.45 440.26 64.44C439.13 65.86 437.83 67.23 436.29 68.63C435.95 68.94 435.61 69.23 435.18 69.58L435 69.72C434.93 69.77 434.86 69.81 434.78 69.87L434.51 70.06C433.52 70.74 432.75 71.19 432.01 71.52C430.8 72.07 429.96 73.36 429.68 74.4C429.34 75.64 429.54 77.04 430.2 78.05C430.9 79.14 431.9 79.88 433.02 80.13C433.4 80.22 433.77 80.25 434.1 80.25C434.86 80.25 435.49 80.07 435.99 79.87L436.11 79.82C436.17 79.8 436.23 79.77 436.29 79.75L437.37 79.28C437.75 79.1 438.13 78.92 438.58 78.69C439.29 78.34 440.01 77.93 440.85 77.4C442.59 76.31 444.15 75.1 445.47 73.8C448.01 71.31 450.21 68.39 452.02 65.1C455.53 58.73 457.45 50.92 457.9 41.24C458.27 33.18 457.69 26.81 456.05 21.19L456.1 21.17Z" fill="white"/>
<path d="M409.85 19.4C409.69 18.9 409.48 18.4 409.2 17.96C408.64 17.04 407.91 16.34 407.03 15.72C406.67 15.47 406.29 15.3 405.89 15.13C405.5 14.97 405.12 14.81 404.71 14.74C403.95 14.61 403.23 14.52 402.47 14.71C402.38 14.73 402.29 14.77 402.2 14.81C401.96 14.77 401.71 14.74 401.46 14.73C401.09 14.71 400.72 14.73 400.35 14.77C399.4 14.89 398.51 15.07 397.62 15.42C396.04 16.05 394.54 16.84 393.15 17.83C392.42 18.35 391.7 18.9 391.1 19.57C390.38 20.38 389.83 21.23 389.48 22.26C389.13 23.27 389.14 24.38 389.36 25.41C389.59 26.44 390.15 27.34 390.83 28.13C391.18 28.54 391.61 28.85 392.04 29.18C392.31 29.39 392.61 29.57 392.91 29.73C393.39 29.97 393.9 30.19 394.41 30.34C394.99 30.51 395.62 30.58 396.22 30.63C397.3 30.73 398.4 30.57 399.45 30.37C400.32 30.2 401.17 29.95 402.01 29.66C403.46 29.16 404.93 28.54 406.2 27.66C406.88 27.18 407.57 26.66 408.12 26.03C408.46 25.65 408.78 25.24 409.05 24.81C409.32 24.39 409.51 23.92 409.7 23.45C409.81 23.17 409.9 22.87 409.95 22.57C410.04 22.05 410.13 21.51 410.09 20.98C410.06 20.45 409.99 19.9 409.82 19.4H409.85ZM403.74 23.1C402.99 23.64 402.18 24.09 401.33 24.46C400.14 24.94 398.89 25.33 397.63 25.54C397.12 25.59 396.61 25.6 396.1 25.55C395.88 25.51 395.67 25.45 395.46 25.38C395.21 25.26 394.98 25.12 394.75 24.96C394.61 24.84 394.48 24.7 394.35 24.57C394.28 24.46 394.21 24.34 394.14 24.23C394.11 24.15 394.09 24.06 394.07 23.98C394.07 23.9 394.07 23.82 394.07 23.74C394.1 23.62 394.13 23.5 394.17 23.38C394.29 23.15 394.42 22.93 394.56 22.73C395.05 22.15 395.62 21.64 396.22 21.16C397.31 20.34 398.47 19.6 399.72 19.05C400.13 18.88 400.55 18.75 400.97 18.65C401.06 18.8 401.17 18.94 401.31 19.06C401.49 19.2 401.66 19.33 401.84 19.47C402.25 19.71 402.68 19.82 403.15 19.83C403.25 19.84 403.36 19.84 403.47 19.84C403.62 19.87 403.76 19.91 403.9 19.96C404.04 20.03 404.17 20.11 404.3 20.19C404.41 20.29 404.52 20.4 404.63 20.52C404.7 20.63 404.77 20.74 404.83 20.86C404.86 20.94 404.88 21.03 404.9 21.11C404.9 21.21 404.9 21.32 404.9 21.42C404.87 21.56 404.83 21.7 404.78 21.84C404.67 22.04 404.56 22.24 404.43 22.43C404.21 22.67 403.98 22.9 403.73 23.11L403.74 23.1Z" fill="white"/>
<path d="M421.69 21.95C421.65 21.65 421.63 21.34 421.53 21.04C421.44 20.76 421.32 20.47 421.17 20.21C421.02 19.95 420.83 19.71 420.63 19.48C420.43 19.25 420.16 19.07 419.92 18.89C419.8 18.8 419.68 18.73 419.54 18.67C419.27 18.55 418.98 18.41 418.69 18.34C418.39 18.26 418.07 18.23 417.76 18.2C417.37 18.16 416.99 18.2 416.6 18.26C416.2 18.31 415.81 18.38 415.42 18.49C415.34 18.51 415.26 18.54 415.19 18.56C414.98 18.63 414.79 18.71 414.58 18.8C414.39 18.88 414.19 18.96 414 19.05C413.63 19.22 413.33 19.5 413.09 19.82C413.01 19.92 412.92 20.02 412.86 20.13C412.84 20.17 412.82 20.21 412.8 20.25C412.72 20.42 412.64 20.6 412.58 20.78C412.55 20.86 412.53 20.94 412.52 21.02C412.48 21.23 412.45 21.45 412.45 21.67C412.45 21.67 412.45 21.68 412.45 21.69C412.45 21.72 412.47 21.75 412.47 21.78C412.35 21.86 412.23 21.95 412.13 22.07C411.96 22.27 411.78 22.48 411.66 22.71C411.56 22.9 411.48 23.1 411.4 23.3C411.38 23.35 411.36 23.41 411.34 23.46C411.27 23.68 411.26 23.91 411.24 24.13C411.24 24.19 411.24 24.25 411.24 24.31C411.24 24.6 411.29 24.89 411.34 25.17C411.4 25.57 411.57 25.95 411.74 26.31C411.79 26.42 411.85 26.52 411.92 26.62C412.04 26.8 412.19 26.97 412.32 27.15C412.36 27.2 412.4 27.25 412.44 27.29C412.63 27.49 412.87 27.66 413.1 27.83C413.2 27.9 413.3 27.96 413.41 28.01C413.69 28.14 414 28.28 414.31 28.35C414.63 28.43 414.97 28.47 415.3 28.49C415.46 28.49 415.63 28.49 415.79 28.48C416.12 28.44 416.46 28.41 416.78 28.32C416.94 28.28 417.1 28.22 417.26 28.16C417.57 28.04 417.88 27.91 418.18 27.75C418.63 27.51 419.03 27.2 419.43 26.88C419.68 26.68 419.91 26.45 420.12 26.2C420.42 25.84 420.72 25.46 420.94 25.04C421.02 24.9 421.08 24.76 421.15 24.62C421.27 24.33 421.41 24.04 421.5 23.74C421.54 23.6 421.58 23.45 421.6 23.3C421.65 22.99 421.7 22.68 421.71 22.37C421.71 22.23 421.71 22.09 421.69 21.94V21.95ZM417.07 22.04C417.22 22.03 417.37 22.03 417.52 22.04C417.59 22.06 417.67 22.08 417.74 22.1C417.75 22.1 417.76 22.11 417.78 22.12C417.78 22.12 417.78 22.12 417.79 22.13C417.79 22.14 417.79 22.16 417.8 22.17C417.8 22.23 417.8 22.29 417.8 22.35C417.77 22.5 417.72 22.65 417.67 22.8C417.56 23.01 417.44 23.22 417.31 23.41C417.12 23.63 416.92 23.83 416.7 24.02C416.51 24.15 416.31 24.27 416.11 24.37C415.94 24.43 415.76 24.48 415.57 24.52C415.49 24.52 415.42 24.52 415.34 24.52C415.32 24.52 415.29 24.51 415.27 24.5C415.26 24.48 415.25 24.47 415.24 24.45C415.24 24.42 415.22 24.39 415.22 24.36C415.22 24.28 415.22 24.21 415.22 24.13C415.22 24.11 415.22 24.09 415.24 24.07C415.24 24.07 415.24 24.07 415.24 24.06C415.33 23.91 415.37 23.75 415.37 23.58C415.38 23.49 415.39 23.41 415.41 23.32L415.37 23.03C415.47 22.95 415.57 22.86 415.63 22.75C415.68 22.64 415.73 22.52 415.77 22.41C415.77 22.39 415.77 22.37 415.77 22.36C415.93 22.32 416.08 22.28 416.24 22.23C416.51 22.15 416.79 22.1 417.07 22.05V22.04Z" fill="white"/>
<path d="M414.52 18.83C414.52 18.83 414.56 18.82 414.58 18.81C414.71 18.75 414.84 18.69 414.98 18.64C414.83 18.7 414.68 18.77 414.53 18.83H414.52Z" fill="white"/>
<path d="M413 19.94C413 19.94 413.07 19.87 413.1 19.83C413.17 19.75 413.22 19.65 413.29 19.57C413.2 19.69 413.1 19.82 413.01 19.94H413Z" fill="white"/>
<path d="M338.44 195.99C338.44 195.99 338.44 195.95 338.43 195.93C338.43 195.89 338.41 195.84 338.39 195.8C338.34 195.66 338.26 195.49 338.21 195.37C338.16 195.25 338.09 195.08 338.03 194.94C338.01 194.9 337.99 194.86 337.96 194.83C337.96 194.83 337.95 194.82 337.94 194.81C337.79 194.6 337.59 194.35 337.43 194.15C337.42 194.13 337.4 194.12 337.39 194.1C337.36 194.07 337.33 194.04 337.3 194.01C337.18 193.91 337.05 193.82 336.94 193.73C336.83 193.65 336.7 193.54 336.58 193.45C336.55 193.43 336.51 193.41 336.47 193.39C336.45 193.39 336.43 193.37 336.42 193.36C336.17 193.25 335.88 193.13 335.63 193.03C335.59 193.01 335.54 193 335.5 192.99C335.46 192.98 335.42 192.97 335.38 192.96C335.36 192.96 335.35 192.96 335.33 192.96C335.03 192.91 334.73 192.88 334.43 192.84C334.25 192.82 334.08 192.82 333.9 192.84C333.45 192.88 332.99 192.94 332.54 193.03C332.14 193.11 331.75 193.21 331.37 193.35C331.32 193.37 331.28 193.38 331.23 193.4C330.94 193.52 330.64 193.64 330.35 193.77C330.26 193.81 330.17 193.86 330.08 193.91C329.99 193.96 329.91 194.01 329.83 194.07C329.58 194.25 329.33 194.45 329.09 194.64C329.05 194.67 329.01 194.71 328.97 194.74C328.9 194.8 328.84 194.86 328.78 194.93C328.58 195.16 328.4 195.41 328.22 195.65C328.19 195.69 328.17 195.72 328.14 195.76C328.09 195.83 328.05 195.91 328.01 195.99C327.94 196.14 327.87 196.31 327.81 196.47C327.74 196.63 327.66 196.8 327.61 196.97C327.58 197.05 327.56 197.14 327.54 197.22C327.51 197.39 327.49 197.58 327.47 197.75C327.45 197.92 327.41 198.11 327.4 198.29C327.4 198.37 327.4 198.46 327.4 198.54C327.43 198.85 327.47 199.17 327.53 199.48C327.53 199.52 327.55 199.56 327.56 199.61C327.66 199.94 327.8 200.27 327.96 200.58C327.98 200.61 328 200.65 328.02 200.68C328.03 200.7 328.05 200.72 328.06 200.74C328.22 200.97 328.41 201.2 328.58 201.42C328.63 201.49 328.69 201.55 328.76 201.6C328.88 201.7 329.01 201.79 329.12 201.88C329.24 201.97 329.36 202.07 329.48 202.16C329.52 202.19 329.55 202.21 329.59 202.23C329.63 202.25 329.66 202.27 329.7 202.29C329.96 202.41 330.23 202.52 330.49 202.62C330.51 202.62 330.53 202.64 330.56 202.65C330.64 202.68 330.73 202.71 330.82 202.72C330.86 202.72 330.91 202.74 330.95 202.74C331.27 202.79 331.58 202.84 331.9 202.87C331.99 202.87 332.08 202.88 332.17 202.88C332.26 202.88 332.35 202.88 332.44 202.86C332.75 202.83 333.07 202.78 333.38 202.73C333.42 202.73 333.46 202.72 333.51 202.71C333.68 202.67 333.85 202.62 334.02 202.55C334.42 202.39 334.85 202.23 335.22 202C335.3 201.95 335.37 201.9 335.44 201.85C335.68 201.67 335.92 201.49 336.15 201.3C336.19 201.27 336.22 201.24 336.25 201.21C336.31 201.15 336.37 201.09 336.43 201.03C336.46 201 336.48 200.97 336.51 200.93C336.59 200.83 336.66 200.73 336.74 200.63C336.88 200.52 337.03 200.42 337.16 200.3C337.19 200.27 337.23 200.24 337.26 200.2C337.27 200.18 337.29 200.17 337.3 200.15C337.49 199.93 337.66 199.69 337.84 199.46C337.89 199.39 337.94 199.31 337.98 199.23C337.98 199.21 338 199.19 338.01 199.17C338.13 198.91 338.24 198.64 338.35 198.37C338.37 198.32 338.39 198.28 338.4 198.23C338.41 198.19 338.42 198.15 338.43 198.11C338.43 198.09 338.43 198.07 338.44 198.05C338.49 197.75 338.53 197.45 338.56 197.14C338.56 197.05 338.57 196.97 338.56 196.88C338.56 196.87 338.56 196.86 338.56 196.84C338.53 196.6 338.48 196.22 338.44 195.98V195.99Z" fill="white"/>
<path d="M512.39 252.69L512.29 252.44C507.21 241.31 499.56 234.3 489.55 231.6C472.56 227.01 449.39 234.89 418.86 255.62C418.98 258.7 419.06 261.78 419.03 264.86C419.03 264.86 419.03 264.88 419.03 264.89C437.88 252.25 458.34 241.86 480.4 236.17C481.98 236.63 483.53 237.16 485.05 237.78C485.1 237.8 485.22 237.85 485.32 237.9C485.27 237.88 485.23 237.85 485.18 237.83C485.71 238.07 485.54 237.99 485.32 237.9C493.91 241.99 505.34 248.77 504.76 259.58C504.48 261.4 503.68 263.15 502.21 264.3C502.22 264.3 502.24 264.3 502.25 264.28C502.22 264.3 502.2 264.31 502.17 264.33C502.18 264.33 502.19 264.31 502.2 264.3C493.47 267.91 484.79 252.51 474.25 257.81C453.64 270.5 435.68 287.7 417.04 303.33C416.97 304.16 416.91 304.99 416.83 305.82C416.59 308.37 416.33 310.93 416.05 313.48C425.92 305.92 435.64 297.96 445.06 290.23C453.66 283.17 462.54 275.87 471.47 268.96L471.5 268.94L473.31 267.54L473.23 267.38C477.85 263.66 482.44 265.91 489.21 269.75C491.96 271.31 494.8 272.92 497.72 273.85L498.12 273.98H498.54C503.12 274.05 507.23 271.88 510 268.05C513.21 263.62 514.12 257.73 512.38 252.7L512.39 252.69Z" fill="white"/>
<path d="M410.97 325.26C411.38 322.73 413.37 316.54 413.72 313.48C415.52 297.45 418.27 264.77 416.58 248.63C416.01 243.15 413.43 235.15 409.88 227.65C416.64 203.97 429.5 146.7 412.6 99.06C419.57 92.66 428.1 84.71 426.53 73.49L426.5 73.34C425.97 70.64 424.93 68.15 423.51 65.97L422.93 65.13C418.7 59.31 411.64 55.96 404.5 57.1L404.22 57.16C386.36 61.93 378.02 81.45 377.67 98.61C377.15 110.84 378.73 123.05 380.26 134.86C382.02 148.44 383.84 162.48 382.35 176.27C381.35 179.29 379.29 182.74 376.85 186.08C376.82 186.21 376.8 186.34 376.75 186.47C376.67 186.68 376.58 186.9 376.5 187.11C376.26 187.68 376.02 188.25 375.77 188.81C375.37 189.68 374.94 190.54 374.47 191.38C372.76 194.47 370.61 197.31 368.13 199.82C367.26 200.7 366.33 201.53 365.37 202.32C365.4 202.45 365.42 202.59 365.45 202.73C357.06 210.98 336.25 232.58 343.06 244.1C344.13 244.24 344.91 243.6 345.29 242.65C348.07 235.16 351.84 228.02 356.74 221.69C366.36 208.09 384.25 198.67 388.3 182.19C402.77 144.98 364.09 84.67 411.44 64.19C416.25 68.07 421.26 73.98 418.08 80.43C418.09 80.4 418.1 80.4 418.11 80.36C416.93 86.94 401.98 93.8 404.78 98.8C415.63 134.22 413.31 172.22 403.83 207.68C401.11 218.36 397.83 228.89 394.31 239.33C393.47 242.8 392.53 246.18 391.42 249.38L391.3 249.85C391.18 250.6 390.56 252.16 389.97 253.67C389.57 254.69 389.15 255.76 388.76 256.85C388.78 258.02 389.17 259.06 390.26 259.84C397.1 260.63 401.91 232.74 404.98 226.6C408.49 244.1 410.79 261.93 409.97 279.82C408.89 320.48 391.2 359.46 362.08 387.72C353.1 397.41 342.65 405.57 333.16 414.71C330.96 416.86 334.33 420.36 336.57 418.12C339.39 416.75 344.2 412.79 347.32 410.07C350.19 445.95 338.67 484.42 310.47 508.05C299.81 518.45 284.09 523.64 275.39 535.78C269.45 561.65 271.24 589.3 267.55 615.59C265.43 621.42 257.81 623.72 252.93 619.79C244.53 610.88 252.04 597.05 250.7 586.16C252.19 569.7 244.97 551.6 250.23 536C250.22 536.01 250.2 536.03 250.19 536.04C250.21 536.02 250.22 536.01 250.24 535.99C269.18 518.2 284.78 495.49 279.87 468.24C301.99 448.13 320.5 421.84 324.33 391.58C324.33 386.5 326.87 373.17 322.35 370.48C320.43 370.83 321.21 373.25 320.97 374.64C320.94 375.67 320.84 379.16 320.65 380.98C320.53 382.03 320.48 383.09 320.35 384.14C319.53 392.01 316.84 403.11 313.33 411.48C313.42 411.26 313.52 411.04 313.61 410.82C313.51 411.06 313.41 411.29 313.31 411.53C313.31 411.52 313.32 411.5 313.33 411.48C302.37 438.73 281.03 460.07 258.09 477.71C236.13 495.35 208.28 508.06 194.94 534.19C185.49 550.93 184.03 570.29 185.54 589.05C186.79 600.66 174.12 609.87 165.43 599.8C161.57 593.58 160.75 585.75 159.43 578.64C155.88 552.78 162.94 526.13 177.17 504.49C180.93 499.4 185.78 495.71 191.65 493.08C198.11 489.44 203.38 483.91 208.59 478.69C216.83 470.65 219.25 459.85 218.16 448.73C218.38 437.26 220.99 425.89 225.41 415.33C225.89 410.97 237.67 396.49 234.68 395.17C236.09 387.95 217.6 391.86 212.76 389.68C203.63 388.43 194.53 386.47 185.78 383.58C150.61 374.42 134.23 332.16 149.19 300.18C152.59 290.71 160.51 281.87 167.64 276.57C170.5 274.4 173.59 272.51 176.88 271.08C176.87 271.08 176.86 271.08 176.85 271.09C177.6 270.7 178.34 270.38 179.06 270.1C191.44 265.29 198.46 275.91 186.57 285.09C147.5 313.1 169.93 373.31 216.71 373.77C251.95 374.18 286.96 355.04 310.35 329.4C325.27 313.12 327.28 290.67 327.27 269.6C329.26 266.96 326.78 263.17 325.53 260.36C325.57 260.45 325.61 260.54 325.65 260.64C316.07 237.77 289.91 228.11 279.81 205.86C279.92 206.12 280.03 206.37 280.13 206.63C279.68 205.5 279.1 204.41 278.68 203.26C293.94 196.61 309.13 204.61 321.78 191.57C329.37 185.14 338.97 186.85 347.79 186.25C351.23 185.65 354.82 182.99 358.14 183.28C361.74 187.55 363.45 193.08 364.64 198.56C365.79 197.42 366.86 196.2 367.86 194.93C369.14 193.25 370.29 191.47 371.3 189.62C369.29 182.72 366.51 177.01 361.28 174.72C356.91 172.8 351.58 173.61 345.04 177.19C335.52 175.41 325.39 177.86 317.31 183.83C317.27 183.79 317.23 183.75 317.18 183.71C311.72 178.33 304.25 170.97 295.6 172.73L294.49 172.96L293.85 173.9C291.34 177.56 291.7 182.26 292.05 186.8C292.16 188.27 292.27 189.69 292.27 190.98C285.74 191.49 280.42 192.93 276.07 195.35L275.53 195.61L275.15 196.2C275.02 196.3 274.54 196.47 274.22 196.58C273.07 196.98 271.33 197.58 270.27 199.41L269.83 200.16L269.89 201.02C271.23 219.56 284.01 231.15 296.37 242.35C304.01 249.27 311.9 256.43 316.81 265.1L316.72 265.17C316.95 265.48 317.16 265.8 317.38 266.13C317.7 266.62 318.04 267.15 318.46 267.67C318.47 268.55 318.49 269.43 318.5 270.31C318.6 275.28 318.68 280 317.89 284.64H317.85C317.8 284.97 317.75 285.31 317.71 285.65L317.66 286.03C316.9 291.51 315.77 295.92 314.16 299.76H314.15L313.74 300.72H313.76L313.45 301.5C313.02 302.58 312.57 303.69 312.11 304.77C294.86 338.87 251.21 363.72 212.82 361.34C200.02 360.29 188.41 352.45 181.77 340.39C175.44 328.89 174.99 315.59 180.55 304.75H180.59L180.9 304.02H180.88C182.46 299.68 185.91 296.86 189.56 293.87C192.87 291.17 196.29 288.37 198.68 284.26L198.79 284.05C203.92 273.17 201.18 267.3 197.99 264.3C191.18 257.9 177.59 259.89 168.25 265.01C163.41 267.66 160.79 270.19 158.88 272.04C158.11 272.78 157.45 273.42 156.82 273.9L156.46 274.23C140.75 291.34 132.95 314.33 135.58 335.64C137.44 357.36 149.43 374.85 170.25 386.22C185.61 394.6 205.25 399.43 226.08 400.03C214.65 416.01 209.18 437.71 210.21 463.25C204.25 475.34 192.63 483.58 181.38 491.55C179.14 493.14 176.92 494.71 174.76 496.3L174.48 496.5L174.26 496.76C150.87 524.92 143.5 565.29 155.48 599.62C156.92 604.44 163.6 614.77 172.1 613.08C178.41 613.88 183.56 612.42 187.4 608.77C193.89 602.61 196.22 590.54 194.52 571.89C194.77 562.8 196.75 553.73 200.42 544.93C209.39 523.27 228.01 510.51 247.72 497C256.23 491.17 264.98 485.17 272.84 478.39C272.73 499.26 262.87 509.61 254.1 518.83C246.67 526.64 239.64 534.02 239.94 546.07C240.18 551.25 240.59 556.5 240.98 561.57C241.83 572.5 242.71 583.81 241.87 594.87C241.75 596.69 241.52 598.55 241.27 600.52C240.43 607.25 239.48 614.89 243.37 621.59C246.26 626.95 252 630.18 258.5 630.18C258.85 630.18 259.21 630.18 259.57 630.15C266.01 629.8 271.55 626.37 273.87 621.34C276.8 618.07 276.85 613.35 276.89 609.17C276.91 606.95 276.93 604.86 277.35 603.24L277.42 602.85C278.34 594.5 278.88 585.96 279.41 577.7C280.2 565.34 281.02 552.57 283.09 540.32C288.59 534.12 295.58 529.41 302.97 524.42C311.19 518.88 319.69 513.15 326.12 505.11C349.09 479.56 359.95 442.27 354.66 407.41C382.79 382.38 401.59 355.5 410.68 327.3C410.79 326.64 410.9 325.98 411.01 325.32L410.97 325.26ZM300.16 192.11C300.47 188.57 300.47 185 300.44 181.45C305.1 183.86 309.29 187.14 312.77 191.07C311.26 192.32 309.74 193.57 308.1 194.63C305.58 193.62 302.65 193.88 299.98 193.62C300.06 193.12 300.11 192.62 300.17 192.12L300.16 192.11Z" fill="white"/>
<path d="M226.41 101.24C226.17 100.56 225.87 99.88 225.46 99.29C225.06 98.7 224.61 98.13 224.05 97.67C223.71 97.39 223.35 97.11 222.97 96.88C222.58 96.65 222.15 96.47 221.73 96.3C221.06 96.03 220.35 95.93 219.63 95.86C218.91 95.79 218.19 95.88 217.48 95.99C217.39 96 217.31 96.04 217.23 96.05C217.22 96.05 217.2 96.05 217.19 96.05C217.03 96.07 216.88 96.1 216.73 96.14C216.21 96.26 215.72 96.48 215.24 96.7C214.98 96.82 214.73 96.95 214.5 97.12C213.9 97.53 213.33 97.99 212.89 98.56C212.6 98.93 212.31 99.29 212.07 99.7C211.84 100.1 211.67 100.54 211.49 100.97C211.29 101.45 211.16 101.96 211.08 102.47C210.98 103.21 210.88 103.93 210.97 104.67C211.05 105.4 211.15 106.13 211.43 106.81C211.6 107.24 211.77 107.67 212.01 108.07C212.25 108.47 212.54 108.84 212.84 109.2C213.01 109.4 213.19 109.59 213.39 109.76C213.74 110.07 214.12 110.36 214.52 110.61C214.74 110.75 214.97 110.87 215.21 110.97C215.64 111.16 216.08 111.35 216.53 111.48C216.78 111.55 217.04 111.6 217.3 111.64C217.77 111.71 218.24 111.78 218.72 111.79C218.99 111.79 219.26 111.79 219.53 111.75C220 111.7 220.48 111.64 220.94 111.53C221.2 111.47 221.46 111.39 221.71 111.29C222.14 111.12 222.58 110.95 222.99 110.73C223.22 110.6 223.45 110.46 223.66 110.3C224.03 110.02 224.4 109.75 224.72 109.42C225.05 109.09 225.33 108.71 225.6 108.33C225.75 108.12 225.88 107.89 226 107.65C226.32 107 226.59 106.31 226.72 105.6C226.85 104.87 226.92 104.14 226.85 103.4C226.77 102.66 226.67 101.93 226.41 101.24ZM212.41 99.25C212.41 99.25 212.4 99.26 212.39 99.27C212.37 99.29 212.36 99.31 212.34 99.33C212.36 99.3 212.38 99.27 212.41 99.25Z" fill="white"/>
<path d="M256.72 276.42C256.64 276.49 256.56 276.54 256.48 276.6C256.41 276.66 256.34 276.72 256.26 276.78C256.41 276.66 256.57 276.54 256.72 276.42Z" fill="white"/>
<path d="M258.77 268.01C258.68 267.86 258.56 267.73 258.46 267.58C258.42 267.49 258.39 267.4 258.35 267.32C258.27 267.16 258.18 267 258.08 266.85C257.85 266.51 257.6 266.18 257.33 265.89C257.13 265.67 256.89 265.49 256.65 265.31C256.42 265.13 256.2 264.96 255.95 264.82C255.88 264.78 255.81 264.75 255.74 264.72C255.71 264.71 255.68 264.7 255.66 264.69C255.59 264.65 255.52 264.6 255.45 264.57C255.15 264.42 254.84 264.28 254.52 264.19C254.09 264.06 253.63 264.01 253.19 264C252.81 264 252.42 264.05 252.04 264.12C251.99 264.1 251.94 264.07 251.89 264.05C251.84 264.03 251.79 264.01 251.74 263.99C251.71 263.99 251.69 263.98 251.66 263.97C251.63 263.97 251.61 263.97 251.58 263.96C251.28 263.89 250.96 263.85 250.68 263.82C250.58 263.81 250.48 263.8 250.38 263.8C250.28 263.8 250.19 263.8 250.09 263.8C250.04 263.8 249.98 263.8 249.93 263.81C249.72 263.83 249.43 263.86 249.21 263.9C248.98 263.94 248.75 264 248.53 264.09C248.23 264.21 247.93 264.33 247.64 264.47C247.55 264.51 247.45 264.56 247.37 264.62C247.11 264.8 246.86 265.01 246.6 265.21C246.51 265.28 246.43 265.35 246.35 265.42C246.05 265.71 245.79 266.07 245.55 266.4C245.43 266.56 245.33 266.74 245.24 266.92C245.09 267.23 244.96 267.54 244.84 267.86C244.8 267.97 244.76 268.08 244.73 268.19C244.61 268.63 244.56 269.1 244.52 269.55C244.5 269.78 244.49 270 244.51 270.23C244.54 270.69 244.6 271.15 244.69 271.6C244.72 271.75 244.77 271.89 244.81 272.03C244.78 272.32 244.78 272.6 244.81 272.89C244.85 273.27 244.89 273.65 244.99 274.02C245.08 274.39 245.25 274.74 245.4 275.08C245.47 275.25 245.56 275.41 245.66 275.57C245.87 275.9 246.11 276.2 246.36 276.5C246.48 276.64 246.61 276.77 246.76 276.89C247.04 277.13 247.34 277.36 247.65 277.56C247.8 277.65 247.96 277.74 248.12 277.81C248.46 277.96 248.81 278.12 249.17 278.22C249.35 278.27 249.53 278.31 249.72 278.34C250.1 278.4 250.48 278.46 250.86 278.47C251.44 278.49 252.01 278.41 252.58 278.32C252.98 278.26 253.37 278.16 253.75 278.03C254.29 277.85 254.82 277.62 255.32 277.36C255.74 277.14 256.13 276.88 256.51 276.59C256.99 276.22 257.45 275.84 257.86 275.38C258.17 275.03 258.47 274.65 258.73 274.25C258.99 273.85 259.18 273.41 259.36 272.96C259.45 272.73 259.52 272.5 259.56 272.26C259.63 271.85 259.7 271.42 259.69 271C259.67 270.37 259.57 269.71 259.33 269.12C259.18 268.74 259.02 268.35 258.81 268L258.77 268.01Z" fill="white"/>
<path d="M471.63 171.5C471.79 171.96 471.98 172.44 472.24 172.86C472.31 172.98 472.39 173.1 472.47 173.21C472.68 173.49 472.89 173.79 473.14 174.05C473.24 174.15 473.34 174.25 473.45 174.34C473.73 174.58 474.03 174.81 474.34 175.02C474.77 175.32 475.25 175.5 475.74 175.7C476.02 175.82 476.3 175.91 476.6 175.97C476.97 176.05 477.35 176.09 477.73 176.14C477.88 176.16 478.03 176.17 478.19 176.17C478.72 176.19 479.25 176.1 479.78 176.02C480.08 175.98 480.37 175.91 480.66 175.81C481.01 175.69 481.35 175.54 481.69 175.39C481.82 175.33 481.96 175.27 482.09 175.19C482.54 174.94 482.96 174.61 483.34 174.28C483.73 173.94 484.04 173.52 484.35 173.1C484.53 172.87 484.68 172.61 484.8 172.35C485.01 171.88 485.23 171.4 485.35 170.9C485.39 170.76 485.41 170.61 485.44 170.47C485.5 170.1 485.56 169.72 485.58 169.34C485.6 169.05 485.59 168.75 485.56 168.46C485.5 167.94 485.44 167.41 485.3 166.9C485.26 166.76 485.21 166.62 485.16 166.48C485.03 166.14 484.89 165.79 484.72 165.46C484.49 165 484.17 164.6 483.85 164.2C483.66 163.96 483.46 163.75 483.23 163.56C482.84 163.24 482.44 162.92 481.99 162.68C481.54 162.44 481.06 162.24 480.57 162.09C480.07 161.94 479.55 161.88 479.03 161.83C478.74 161.8 478.44 161.79 478.15 161.81C477.63 161.84 477.11 161.91 476.6 162.03C476.1 162.15 475.63 162.36 475.16 162.57C474.89 162.69 474.64 162.83 474.4 163C474.1 163.21 473.82 163.43 473.54 163.66C473.43 163.75 473.32 163.86 473.22 163.96C472.98 164.22 472.77 164.51 472.56 164.78C472.48 164.89 472.4 165 472.33 165.11C472.08 165.51 471.9 165.97 471.74 166.4C471.65 166.64 471.58 166.9 471.54 167.15C471.47 167.54 471.42 167.93 471.4 168.33C471.4 168.35 471.4 168.38 471.39 168.4C471.36 168.65 471.32 168.9 471.31 169.15C471.29 169.66 471.38 170.17 471.45 170.67C471.49 170.94 471.56 171.21 471.65 171.47L471.63 171.5Z" fill="white"/>
<path d="M466.08 319.9C466.08 319.9 466.03 319.94 466 319.96C466.38 319.69 466.19 319.82 466.08 319.9Z" fill="white"/>
<path d="M465.91 320.03C465.91 320.03 465.96 319.99 465.99 319.98C465.99 319.98 466 319.97 466.01 319.96C465.97 319.99 465.96 320 465.91 320.03Z" fill="white"/>
<path d="M500.08 331.35C499.36 327.44 497.3 323.71 494.36 321.03C491.41 318.35 487.67 316.52 483.74 315.83C479.69 315.12 475.52 315.39 471.67 316.9C470.65 317.3 469.64 317.75 468.67 318.27C467.73 318.78 466.87 319.37 465.99 319.98C465.78 320.14 465.58 320.3 465.37 320.46C465.19 320.6 465.01 320.74 464.83 320.89C464.47 321.18 464.12 321.48 463.78 321.8C463.09 322.43 462.43 323.08 461.81 323.77C461.5 324.12 461.19 324.47 460.9 324.83C460.75 325.01 460.61 325.19 460.47 325.38C460.36 325.52 460.26 325.66 460.15 325.8C460.13 325.83 460.1 325.86 460.09 325.88C460.09 325.88 460.08 325.9 460.07 325.9C460.07 325.91 460.05 325.93 460.04 325.94C460.05 325.92 460.05 325.92 460.06 325.91C459.43 326.72 458.86 327.6 458.35 328.49C457.23 330.42 456.25 332.91 457.15 335.13C456.83 337.13 456.86 339.19 457.21 341.17C457.56 343.14 458.32 345.11 459.39 346.81C460.6 348.73 462.14 350.31 463.93 351.69C467.23 354.23 471.39 355.58 475.53 355.77C480.07 355.98 484.62 354.69 488.6 352.56C490.63 351.47 492.53 350.12 494.26 348.6C495.92 347.14 497.42 345.39 498.44 343.43C500.39 339.7 500.84 335.47 500.09 331.37L500.08 331.35ZM492.52 342.32C492.71 342.03 492.63 342.17 492.52 342.32ZM472.05 322.29C472.11 322.26 472.2 322.23 472.25 322.21C472.26 322.21 472.28 322.21 472.29 322.2C472.29 322.2 472.23 322.23 472 322.31C472.02 322.31 472.03 322.3 472.05 322.29ZM494.82 336.76C494.7 337.52 494.51 338.26 494.27 338.99C494.29 338.91 494.32 338.84 494.35 338.76C494.96 336.47 495 334.06 494.53 331.76C494.64 332.21 494.74 332.66 494.81 333.12C494.94 334.33 494.95 335.55 494.81 336.76H494.82ZM494.38 331.14C494.43 331.31 494.47 331.48 494.51 331.65C494.47 331.48 494.42 331.31 494.38 331.14Z" fill="white"/>
<path d="M451.76 402.67C451.59 402.23 451.41 401.79 451.18 401.38C450.95 400.99 450.67 400.62 450.38 400.28C450.2 400.07 450.01 399.87 449.8 399.7C449.47 399.42 449.12 399.15 448.74 398.94C448.67 398.9 448.6 398.88 448.53 398.85C448.21 398.56 447.87 398.29 447.52 398.05C446.89 397.62 446.16 397.31 445.44 397.08C444.71 396.85 443.93 396.75 443.17 396.71C442.4 396.67 441.62 396.78 440.87 396.92C440.1 397.07 439.39 397.36 438.68 397.67C438.18 397.89 437.71 398.16 437.28 398.48C436.66 398.94 436.07 399.41 435.58 400.01C435.28 400.38 434.98 400.76 434.73 401.17C434.53 401.5 434.38 401.85 434.23 402.21C434.07 402.58 433.93 402.94 433.83 403.33C433.71 403.82 433.65 404.34 433.6 404.84C433.52 405.65 433.62 406.46 433.77 407.26C433.91 408.05 434.21 408.79 434.54 409.52C434.78 410.06 435.09 410.57 435.45 411.04C435.94 411.69 436.44 412.3 437.08 412.82C437.7 413.32 438.32 413.79 439.05 414.11C439.52 414.32 439.99 414.53 440.48 414.67C440.97 414.81 441.47 414.87 441.98 414.93C442.83 415.04 443.68 414.94 444.53 414.8C445.35 414.66 446.12 414.34 446.87 413.98C447.63 413.61 448.31 413.1 448.96 412.56C449.6 412.02 450.13 411.37 450.62 410.69C451.04 410.12 451.32 409.51 451.6 408.87C451.83 408.29 452.04 407.72 452.13 407.1C452.24 406.37 452.32 405.67 452.25 404.94C452.17 404.17 452.06 403.41 451.78 402.69L451.76 402.67Z" fill="white"/>
<path d="M451.74 408.51C451.69 408.63 451.63 408.74 451.58 408.86C451.55 408.94 451.52 409.02 451.49 409.11C451.57 408.91 451.66 408.71 451.74 408.52V408.51Z" fill="white"/>
<path d="M405.58 464.26C405.56 464.13 405.53 464.01 405.49 463.88C405.38 463.52 405.22 463.18 405.07 462.84C405.02 462.72 404.96 462.61 404.9 462.5C404.84 462.39 404.77 462.28 404.69 462.18C404.51 461.93 404.32 461.69 404.13 461.45C404.09 461.4 404.04 461.35 404 461.3C403.91 461.2 403.82 461.11 403.72 461.03C403.44 460.79 403.15 460.56 402.85 460.35C402.44 460.06 401.96 459.88 401.5 459.7C401.03 459.51 400.5 459.47 400.01 459.41C399.87 459.39 399.74 459.39 399.6 459.39C399.2 459.4 398.8 459.47 398.41 459.54C398.26 459.57 398.12 459.6 397.98 459.65C397.61 459.77 397.25 459.93 396.91 460.1C396.78 460.16 396.66 460.24 396.54 460.32C396.28 460.5 396.04 460.69 395.8 460.89C395.74 460.93 395.69 460.98 395.64 461.03C395.54 461.12 395.45 461.22 395.37 461.33C395.17 461.58 394.92 461.87 394.75 462.17C394.58 462.47 394.46 462.81 394.33 463.12C394.29 463.21 394.26 463.31 394.24 463.4C394.15 463.74 394.12 464.13 394.08 464.45C394.07 464.55 394.06 464.65 394.06 464.76C394.06 464.86 394.06 464.96 394.08 465.06C394.12 465.41 394.16 465.77 394.23 466.11C394.23 466.13 394.25 466.15 394.25 466.18C394.25 466.21 394.26 466.25 394.26 466.28C394.28 466.39 394.3 466.5 394.33 466.61C394.43 466.94 394.58 467.26 394.72 467.57C394.77 467.67 394.82 467.76 394.88 467.85C395.06 468.12 395.26 468.38 395.48 468.63C395.52 468.68 395.58 468.72 395.63 468.77C395.63 468.77 395.63 468.78 395.64 468.79C395.71 468.87 395.78 468.96 395.85 469.03C395.89 469.07 395.92 469.1 395.96 469.14L395.98 469.26C396.07 469.64 396.25 469.98 396.51 470.27C396.64 470.49 396.82 470.67 397.04 470.8C397.33 471.06 397.66 471.24 398.05 471.33C398.17 471.36 398.29 471.39 398.42 471.41C398.78 471.46 399.18 471.54 399.56 471.54C399.68 471.54 399.8 471.54 399.92 471.52C400.29 471.48 400.67 471.44 401.04 471.36C401.16 471.33 401.28 471.3 401.4 471.26C401.45 471.24 401.51 471.22 401.56 471.2C401.85 471.08 402.15 470.96 402.43 470.83C402.65 470.73 402.86 470.6 403.06 470.45C403.45 470.16 403.86 469.87 404.18 469.5C404.3 469.36 404.41 469.21 404.52 469.07C404.63 468.92 404.75 468.78 404.86 468.63C404.93 468.53 404.99 468.43 405.05 468.32C405.08 468.27 405.1 468.21 405.13 468.16C405.25 467.88 405.38 467.6 405.49 467.31C405.53 467.19 405.57 467.07 405.6 466.95C405.69 466.58 405.73 466.19 405.76 465.81C405.77 465.68 405.77 465.56 405.76 465.43C405.76 465.37 405.76 465.3 405.74 465.24C405.7 464.92 405.67 464.61 405.61 464.29L405.58 464.26Z" fill="white"/>
<path d="M177.01 142.55C167.71 141.91 160.27 134.47 159.64 125.16C159.59 124.42 158.92 123.87 158.18 123.93C158.15 123.93 158.12 123.93 158.09 123.93C157.41 123.99 156.9 124.55 156.85 125.23C156.51 129.94 154.41 134.15 151.23 137.24C148.28 139.81 144.63 141.57 140.48 141.87C139.8 141.92 139.24 142.43 139.18 143.11C139.18 143.16 139.18 143.2 139.17 143.25C139.1 144 139.66 144.66 140.41 144.72C149.71 145.36 157.15 152.8 157.78 162.11C157.83 162.85 158.5 163.4 159.24 163.34C159.27 163.34 159.3 163.34 159.33 163.34C160.01 163.28 160.52 162.72 160.57 162.04C160.91 157.33 163.01 153.12 166.19 150.03C169.14 147.46 172.79 145.7 176.94 145.4C177.62 145.35 178.18 144.84 178.24 144.16C178.24 144.11 178.24 144.07 178.25 144.02C178.32 143.27 177.76 142.61 177.01 142.55Z" fill="white"/>
<path d="M186.84 431.01C177.54 430.37 170.1 422.93 169.47 413.62C169.42 412.88 168.75 412.33 168.01 412.39C167.98 412.39 167.95 412.39 167.92 412.39C167.24 412.45 166.73 413.01 166.68 413.69C166.34 418.4 164.24 422.61 161.06 425.7C158.11 428.27 154.46 430.03 150.31 430.33C149.63 430.38 149.07 430.89 149.01 431.57C149.01 431.62 149.01 431.66 149 431.71C148.93 432.46 149.49 433.12 150.24 433.18C159.54 433.82 166.98 441.26 167.61 450.57C167.66 451.31 168.33 451.86 169.07 451.8C169.1 451.8 169.13 451.8 169.16 451.8C169.84 451.74 170.35 451.18 170.4 450.5C170.74 445.79 172.84 441.58 176.02 438.49C178.97 435.92 182.62 434.16 186.77 433.86C187.45 433.81 188.01 433.3 188.07 432.62C188.07 432.57 188.07 432.53 188.08 432.48C188.15 431.73 187.59 431.07 186.84 431.01Z" fill="white"/>
<path d="M467.76 580.81C455.19 579.94 445.15 569.9 444.3 557.33C444.23 556.33 443.32 555.58 442.32 555.67C442.28 555.67 442.23 555.67 442.19 555.68C441.27 555.77 440.58 556.52 440.51 557.44C440.05 563.8 437.22 569.48 432.92 573.66C428.93 577.13 424 579.51 418.4 579.92C417.48 579.99 416.73 580.68 416.64 581.59C416.64 581.65 416.63 581.72 416.62 581.78C416.53 582.79 417.29 583.69 418.3 583.76C430.87 584.63 440.91 594.67 441.76 607.24C441.83 608.24 442.74 608.99 443.74 608.9C443.78 608.9 443.83 608.9 443.87 608.89C444.79 608.8 445.48 608.05 445.55 607.13C446.01 600.77 448.84 595.09 453.14 590.91C457.13 587.44 462.06 585.06 467.66 584.65C468.58 584.58 469.33 583.89 469.42 582.98C469.42 582.92 469.43 582.85 469.44 582.79C469.53 581.78 468.77 580.88 467.76 580.81Z" fill="white"/>
<path d="M476.27 554.24C481.809 554.24 486.3 549.749 486.3 544.21C486.3 538.671 481.809 534.18 476.27 534.18C470.731 534.18 466.24 538.671 466.24 544.21C466.24 549.749 470.731 554.24 476.27 554.24Z" fill="white"/>
<path d="M93.8998 108.28C100.593 108.28 106.02 102.854 106.02 96.16C106.02 89.4663 100.593 84.04 93.8998 84.04C87.2061 84.04 81.7798 89.4663 81.7798 96.16C81.7798 102.854 87.2061 108.28 93.8998 108.28Z" fill="white"/>
<path d="M77.3399 127.84C81.1728 127.84 84.2799 124.733 84.2799 120.9C84.2799 117.067 81.1728 113.96 77.3399 113.96C73.507 113.96 70.3999 117.067 70.3999 120.9C70.3999 124.733 73.507 127.84 77.3399 127.84Z" fill="white"/>
</svg>
